<?xml version="1.0" encoding="UTF-8" standalone="no"?>
<svg
   viewBox="0 0 200 100"
   version="1.1"
   id="svg2"
   sodipodi:docname="left_sword_200x100.svg"
   width="200"
   height="100"
   inkscape:version="1.3.2 (091e20e, 2023-11-25, custom)"
   xmlns:inkscape="http://www.inkscape.org/namespaces/inkscape"
   xmlns:sodipodi="http://sodipodi.sourceforge.net/DTD/sodipodi-0.dtd"
   xmlns="http://www.w3.org/2000/svg"
   xmlns:svg="http://www.w3.org/2000/svg">
  <sodipodi:namedview
     id="namedview2"
     pagecolor="#ffffff"
     bordercolor="#000000"
     borderopacity="0.25"
     inkscape:showpageshadow="2"
     inkscape:pageopacity="0.0"
     inkscape:pagecheckerboard="0"
     inkscape:deskcolor="#d1d1d1"
     inkscape:zoom="3.1757812"
     inkscape:cx="100.29028"
     inkscape:cy="113.83026"
     inkscape:window-width="1920"
     inkscape:window-height="1009"
     inkscape:window-x="-8"
     inkscape:window-y="-8"
     inkscape:window-maximized="1"
     inkscape:current-layer="svg2" />
  <defs
     id="defs2">
    <linearGradient
       id="lorc-broadsword-gradient-1"
       x1="21.013"
       x2="21.013"
       y1="22.533001"
       y2="493.36401"
       gradientUnits="userSpaceOnUse">
      <stop
         offset="0%"
         stop-color="#d55877"
         stop-opacity="1"
         id="stop1" />
      <stop
         offset="100%"
         stop-color="#5896d5"
         stop-opacity="1"
         id="stop2" />
    </linearGradient>
  </defs>
  <g
     class=""
     id="g2"
     transform="matrix(0.21052282,-0.21785899,0.21052282,0.21785899,-3.9870087,50.517851)">
    <path
       d="M 491.844,22.533 408.424,37.398 196.572,249.25 c 3.262,4.815 5.37,10.72 5.37,16.932 0,5.863 -1.71,11.35 -4.643,15.996 -5.065,-1.606 -10.448,-2.477 -16.027,-2.477 -15.724,0 -29.904,6.89 -39.69,17.796 l -9.112,-9.113 17.237,-17.237 c -4.515,-5.772 -8.907,-11.645 -13.19,-17.6 l -19.443,19.44 -13.215,-13.215 21.828,-21.827 c -4.403,-6.59 -8.67,-13.278 -12.792,-20.068 l -40.802,40.803 58.314,58.314 c -1.613,5.075 -2.49,10.47 -2.49,16.063 0,7.666 1.65,14.96 4.592,21.564 l -72.14,72.14 -14.56,-14.56 -24.796,24.799 14.558,14.56 -8.607,8.608 27.246,27.246 8.606,-8.61 14.56,14.56 24.798,-24.8 -14.557,-14.556 72.158,-72.16 c 6.586,2.922 13.858,4.562 21.498,4.562 5.593,0 10.988,-0.877 16.063,-2.49 l 58.363,58.363 40.801,-40.803 c -6.797,-4.127 -13.486,-8.395 -20.068,-12.793 l -21.83,21.83 -13.212,-13.217 19.442,-19.44 c -5.962,-4.29 -11.835,-8.683 -17.603,-13.194 l -17.238,17.238 -9.16,-9.16 c 10.905,-9.785 17.795,-23.965 17.795,-39.69 0,-5.346 -0.806,-10.51 -2.285,-15.39 4.703,-3.04 10.288,-4.817 16.265,-4.816 6.21,0 11.776,1.77 16.52,4.955 L 476.98,105.95 Z M 425.617,75.545 438.832,88.76 247.148,280.44 233.934,267.227 Z M 181.273,298.39 c 19.257,0 34.665,15.41 34.665,34.665 0,19.256 -15.408,34.666 -34.665,34.666 -19.256,0 -34.666,-15.41 -34.666,-34.665 0,-19.255 15.41,-34.666 34.666,-34.666 z"
       fill="url(#lorc-broadsword-gradient-1)"
       transform="rotate(-90,256,256)"
       id="path2"
       style="fill:url(#lorc-broadsword-gradient-1)" />
  </g>
</svg>
